<svg width="339" height="56" viewBox="0 0 339 56" fill="none" xmlns="http://www.w3.org/2000/svg">
<rect x="0.5" y="0.5" width="338" height="55" rx="7.5" fill="white"/>
<rect x="0.5" y="0.5" width="338" height="55" rx="7.5" stroke="#E0E0E9" stroke-linecap="round"/>
<path fill-rule="evenodd" clip-rule="evenodd" d="M47.54 28.2614C47.54 27.4459 47.4668 26.6618 47.3309 25.9091H36.5V30.3575H42.6891C42.4225 31.795 41.6123 33.013 40.3943 33.8284V36.7139H44.1109C46.2855 34.7118 47.54 31.7637 47.54 28.2614Z" fill="#4285F4"/>
<path fill-rule="evenodd" clip-rule="evenodd" d="M36.5 39.4998C39.605 39.4998 42.2081 38.47 44.1109 36.7137L40.3943 33.8282C39.3645 34.5182 38.0472 34.9259 36.5 34.9259C33.5047 34.9259 30.9695 32.903 30.0652 30.1848H26.2231V33.1644C28.1154 36.9228 32.0045 39.4998 36.5 39.4998Z" fill="#34A853"/>
<path fill-rule="evenodd" clip-rule="evenodd" d="M30.0652 30.1851C29.8352 29.4951 29.7045 28.758 29.7045 28.0001C29.7045 27.2421 29.8352 26.5051 30.0652 25.8151V22.8355H26.2232C25.4443 24.388 25 26.1444 25 28.0001C25 29.8557 25.4443 31.6121 26.2232 33.1646L30.0652 30.1851Z" fill="#FBBC05"/>
<path fill-rule="evenodd" clip-rule="evenodd" d="M36.5 21.0739C38.1884 21.0739 39.7043 21.6541 40.8961 22.7936L44.1945 19.4952C42.2029 17.6395 39.5997 16.5 36.5 16.5C32.0045 16.5 28.1154 19.077 26.2231 22.8355L30.0652 25.815C30.9695 23.0968 33.5047 21.0739 36.5 21.0739Z" fill="#EA4335"/>
<path d="M88.4418 25.0497C88.3045 24.6188 88.1198 24.233 87.8878 23.892C87.6605 23.5464 87.3883 23.2528 87.071 23.0114C86.7538 22.7652 86.3916 22.5781 85.9844 22.4503C85.5819 22.3224 85.1392 22.2585 84.6562 22.2585C83.8371 22.2585 83.0985 22.4692 82.4403 22.8906C81.7822 23.312 81.2614 23.9299 80.8778 24.7443C80.4991 25.554 80.3097 26.5459 80.3097 27.7202C80.3097 28.8991 80.5014 29.8958 80.8849 30.7102C81.2685 31.5246 81.794 32.1425 82.4616 32.5639C83.1293 32.9853 83.8892 33.196 84.7415 33.196C85.5322 33.196 86.2211 33.035 86.8082 32.7131C87.4001 32.3911 87.857 31.9366 88.179 31.3494C88.5057 30.7576 88.669 30.0616 88.669 29.2614L89.2372 29.3679H85.0753V27.5568H90.7926V29.2116C90.7926 30.4332 90.5322 31.4938 90.0114 32.3935C89.4953 33.2884 88.7803 33.9796 87.8665 34.4673C86.9574 34.955 85.9157 35.1989 84.7415 35.1989C83.4252 35.1989 82.2699 34.8958 81.2756 34.2898C80.286 33.6837 79.5142 32.8243 78.9602 31.7116C78.4063 30.5942 78.1293 29.2685 78.1293 27.7344C78.1293 26.5743 78.2902 25.5327 78.6122 24.6094C78.9342 23.6861 79.3864 22.9025 79.9688 22.2585C80.5559 21.6098 81.2448 21.1151 82.0355 20.7741C82.831 20.4285 83.6998 20.2557 84.642 20.2557C85.428 20.2557 86.1596 20.3717 86.8366 20.6037C87.5185 20.8357 88.1245 21.1648 88.6548 21.5909C89.1899 22.017 89.6326 22.5237 89.983 23.1108C90.3333 23.6932 90.5701 24.3395 90.6932 25.0497H88.4418ZM98.0032 35.2202C96.9805 35.2202 96.0879 34.9858 95.3256 34.517C94.5633 34.0483 93.9715 33.3925 93.5501 32.5497C93.1287 31.7069 92.918 30.7221 92.918 29.5952C92.918 28.4635 93.1287 27.474 93.5501 26.6264C93.9715 25.7789 94.5633 25.1207 95.3256 24.652C96.0879 24.1832 96.9805 23.9489 98.0032 23.9489C99.0259 23.9489 99.9184 24.1832 100.681 24.652C101.443 25.1207 102.035 25.7789 102.456 26.6264C102.878 27.474 103.088 28.4635 103.088 29.5952C103.088 30.7221 102.878 31.7069 102.456 32.5497C102.035 33.3925 101.443 34.0483 100.681 34.517C99.9184 34.9858 99.0259 35.2202 98.0032 35.2202ZM98.0103 33.4375C98.6732 33.4375 99.2224 33.2623 99.658 32.9119C100.094 32.5616 100.416 32.0952 100.624 31.5128C100.837 30.9304 100.944 30.2888 100.944 29.5881C100.944 28.892 100.837 28.2528 100.624 27.6705C100.416 27.0833 100.094 26.6122 99.658 26.2571C99.2224 25.902 98.6732 25.7244 98.0103 25.7244C97.3427 25.7244 96.7887 25.902 96.3484 26.2571C95.9128 26.6122 95.5884 27.0833 95.3754 27.6705C95.167 28.2528 95.0629 28.892 95.0629 29.5881C95.0629 30.2888 95.167 30.9304 95.3754 31.5128C95.5884 32.0952 95.9128 32.5616 96.3484 32.9119C96.7887 33.2623 97.3427 33.4375 98.0103 33.4375ZM110.054 35.2202C109.031 35.2202 108.139 34.9858 107.376 34.517C106.614 34.0483 106.022 33.3925 105.601 32.5497C105.179 31.7069 104.969 30.7221 104.969 29.5952C104.969 28.4635 105.179 27.474 105.601 26.6264C106.022 25.7789 106.614 25.1207 107.376 24.652C108.139 24.1832 109.031 23.9489 110.054 23.9489C111.077 23.9489 111.969 24.1832 112.732 24.652C113.494 25.1207 114.086 25.7789 114.507 26.6264C114.929 27.474 115.139 28.4635 115.139 29.5952C115.139 30.7221 114.929 31.7069 114.507 32.5497C114.086 33.3925 113.494 34.0483 112.732 34.517C111.969 34.9858 111.077 35.2202 110.054 35.2202ZM110.061 33.4375C110.724 33.4375 111.273 33.2623 111.709 32.9119C112.144 32.5616 112.466 32.0952 112.675 31.5128C112.888 30.9304 112.994 30.2888 112.994 29.5881C112.994 28.892 112.888 28.2528 112.675 27.6705C112.466 27.0833 112.144 26.6122 111.709 26.2571C111.273 25.902 110.724 25.7244 110.061 25.7244C109.393 25.7244 108.839 25.902 108.399 26.2571C107.964 26.6122 107.639 27.0833 107.426 27.6705C107.218 28.2528 107.114 28.892 107.114 29.5881C107.114 30.2888 107.218 30.9304 107.426 31.5128C107.639 32.0952 107.964 32.5616 108.399 32.9119C108.839 33.2623 109.393 33.4375 110.061 33.4375ZM122.083 39.3182C121.217 39.3182 120.471 39.2045 119.846 38.9773C119.226 38.75 118.719 38.4493 118.326 38.0753C117.933 37.7012 117.64 37.2917 117.446 36.8466L119.271 36.0938C119.399 36.3021 119.569 36.5223 119.782 36.7543C120 36.991 120.294 37.1922 120.663 37.358C121.037 37.5237 121.518 37.6065 122.105 37.6065C122.91 37.6065 123.575 37.41 124.1 37.017C124.626 36.6288 124.889 36.0085 124.889 35.1562V33.0114H124.754C124.626 33.2434 124.441 33.5014 124.2 33.7855C123.963 34.0696 123.636 34.3158 123.22 34.5241C122.803 34.7325 122.261 34.8366 121.593 34.8366C120.732 34.8366 119.955 34.6354 119.264 34.233C118.577 33.8258 118.033 33.2268 117.63 32.4361C117.233 31.6406 117.034 30.6629 117.034 29.5028C117.034 28.3428 117.23 27.3485 117.623 26.5199C118.021 25.6913 118.565 25.0568 119.257 24.6165C119.948 24.1714 120.732 23.9489 121.608 23.9489C122.285 23.9489 122.832 24.0625 123.248 24.2898C123.665 24.5123 123.989 24.7727 124.221 25.071C124.458 25.3693 124.64 25.6321 124.768 25.8594H124.924V24.0909H127.005V35.2415C127.005 36.179 126.788 36.9484 126.352 37.5497C125.916 38.151 125.327 38.5961 124.583 38.8849C123.845 39.1738 123.011 39.3182 122.083 39.3182ZM122.062 33.0753C122.673 33.0753 123.189 32.9332 123.61 32.6491C124.037 32.3603 124.359 31.9484 124.576 31.4134C124.799 30.8736 124.91 30.2273 124.91 29.4744C124.91 28.7405 124.801 28.0942 124.583 27.5355C124.366 26.9768 124.046 26.5412 123.625 26.2287C123.203 25.9115 122.682 25.7528 122.062 25.7528C121.423 25.7528 120.89 25.9186 120.464 26.25C120.038 26.5767 119.716 27.0218 119.498 27.5852C119.285 28.1487 119.179 28.7784 119.179 29.4744C119.179 30.1894 119.288 30.8168 119.505 31.3565C119.723 31.8963 120.045 32.3177 120.471 32.6207C120.902 32.9238 121.432 33.0753 122.062 33.0753ZM131.977 20.4545V35H129.853V20.4545H131.977ZM139.536 35.2202C138.461 35.2202 137.535 34.9905 136.759 34.5312C135.987 34.0672 135.39 33.4162 134.969 32.5781C134.552 31.7353 134.344 30.7481 134.344 29.6165C134.344 28.4991 134.552 27.5142 134.969 26.6619C135.39 25.8097 135.977 25.1444 136.73 24.6662C137.488 24.188 138.373 23.9489 139.386 23.9489C140.002 23.9489 140.598 24.0507 141.176 24.2543C141.754 24.4579 142.272 24.7775 142.732 25.2131C143.191 25.6487 143.553 26.2145 143.818 26.9105C144.083 27.6018 144.216 28.4422 144.216 29.4318V30.1847H135.544V28.5938H142.135C142.135 28.035 142.021 27.5402 141.794 27.1094C141.567 26.6738 141.247 26.3305 140.835 26.0795C140.428 25.8286 139.95 25.7031 139.401 25.7031C138.804 25.7031 138.283 25.8499 137.838 26.1435C137.398 26.4323 137.057 26.8111 136.815 27.2798C136.579 27.7438 136.46 28.2481 136.46 28.7926V30.0355C136.46 30.7647 136.588 31.3849 136.844 31.8963C137.104 32.4077 137.466 32.7983 137.93 33.0682C138.394 33.3333 138.937 33.4659 139.557 33.4659C139.959 33.4659 140.326 33.4091 140.658 33.2955C140.989 33.1771 141.276 33.0019 141.517 32.7699C141.759 32.5379 141.943 32.2514 142.071 31.9105L144.081 32.2727C143.92 32.8646 143.631 33.383 143.214 33.8281C142.803 34.2685 142.284 34.6117 141.659 34.858C141.039 35.0994 140.331 35.2202 139.536 35.2202ZM146.145 32.96H162.525V34.34H146.145V32.96ZM153.465 29.08H155.125V33.54H153.465V29.08ZM148.125 19.82H160.505V25.3H149.825V28.92H148.185V23.96H158.865V21.16H148.125V19.82ZM148.185 28.22H160.925V29.58H148.185V28.22ZM169.836 32.96H186.216V34.34H169.836V32.96ZM177.156 29.08H178.816V33.54H177.156V29.08ZM171.816 19.82H184.196V25.3H173.516V28.92H171.876V23.96H182.556V21.16H171.816V19.82ZM171.876 28.22H184.616V29.58H171.876V28.22ZM189.994 20.4H201.634V21.74H189.994V20.4ZM188.234 32.54H204.574V33.92H188.234V32.54ZM200.754 20.4H202.374V22.2C202.374 24.52 202.374 27.1 201.694 31L200.034 30.84C200.754 27.14 200.754 24.44 200.754 22.2V20.4ZM219.773 18.5H221.453V31.7H219.773V18.5ZM209.833 34.8H221.993V36.16H209.833V34.8ZM209.833 30.34H211.473V35.26H209.833V30.34ZM211.753 19.74C214.453 19.74 216.453 21.58 216.453 24.2C216.453 26.8 214.453 28.66 211.753 28.66C209.053 28.66 207.033 26.8 207.033 24.2C207.033 21.58 209.053 19.74 211.753 19.74ZM211.753 21.18C209.993 21.18 208.653 22.42 208.653 24.2C208.653 25.96 209.993 27.2 211.753 27.2C213.513 27.2 214.853 25.96 214.853 24.2C214.853 22.42 213.513 21.18 211.753 21.18Z" fill="#1D1C2B"/>
</svg>
