<svg width="48" height="48" viewBox="0 0 48 48" fill="none" xmlns="http://www.w3.org/2000/svg">
<rect x="2" y="2" width="44" height="44" rx="22" fill="#D71920"/>
<g clip-path="url(#clip0_530_706)">
<path d="M36.8936 21.1118H37.6494C37.6733 21.1118 37.6962 21.1023 37.7131 21.0854C37.73 21.0686 37.7394 21.0457 37.7394 21.0218V19.5968C37.7394 19.5851 37.7371 19.5735 37.7326 19.5626C37.728 19.5518 37.7214 19.542 37.713 19.5338C37.7046 19.5255 37.6947 19.5191 37.6837 19.5147C37.6728 19.5104 37.6612 19.5083 37.6494 19.5085H36.5879C35.36 19.5085 34.7095 19.9008 34.3375 20.7348L32.0294 26.3888C31.9829 26.5446 31.8839 26.6795 31.7492 26.7705C31.6145 26.8616 31.4524 26.9031 31.2906 26.8881V19.5968C31.2906 19.5851 31.2882 19.5735 31.2837 19.5626C31.2791 19.5518 31.2725 19.542 31.2641 19.5338C31.2557 19.5255 31.2458 19.5191 31.2349 19.5147C31.2239 19.5104 31.2123 19.5083 31.2005 19.5085H29.5021C29.4904 19.5083 29.4787 19.5104 29.4678 19.5147C29.4569 19.5191 29.447 19.5255 29.4386 19.5338C29.4302 19.542 29.4235 19.5518 29.419 19.5626C29.4144 19.5735 29.4121 19.5851 29.4121 19.5968V28.3352C29.4126 28.3768 29.4294 28.4165 29.459 28.4458C29.4885 28.475 29.5285 28.4914 29.5701 28.4914H31.474C32.7002 28.4914 33.2624 28.0991 33.6327 27.2652L35.9119 21.6808C36.0954 21.285 36.3586 21.1118 36.8936 21.1118Z" fill="white"/>
<path d="M16.1594 24.0009C16.8388 23.7172 17.4027 23.0803 17.4027 22.0273C17.4027 20.4597 16.0575 19.5085 14.4356 19.5085H9.42183C9.39841 19.5085 9.37594 19.5179 9.35938 19.5344C9.34282 19.551 9.33351 19.5734 9.33351 19.5969V21.0218C9.33329 21.0336 9.3354 21.0452 9.33974 21.0562C9.34408 21.0671 9.35055 21.077 9.35877 21.0854C9.367 21.0938 9.37681 21.1004 9.38764 21.105C9.39846 21.1095 9.41009 21.1119 9.42183 21.1118H14.0891C14.8415 21.1118 15.351 21.5721 15.351 22.1309C15.351 22.6897 14.8415 23.1584 14.0891 23.1584H11.3156V22.1037C11.3158 22.0918 11.3136 22.08 11.3092 22.069C11.3047 22.058 11.2981 22.048 11.2897 22.0396C11.2813 22.0312 11.2713 22.0245 11.2603 22.0201C11.2492 22.0156 11.2374 22.0135 11.2255 22.0137H9.42183C9.41009 22.0137 9.39846 22.016 9.38764 22.0206C9.37681 22.0251 9.367 22.0318 9.35877 22.0402C9.35055 22.0486 9.34408 22.0585 9.33974 22.0694C9.3354 22.0803 9.33329 22.092 9.33351 22.1037V28.3997C9.33351 28.4232 9.34282 28.4456 9.35938 28.4622C9.37594 28.4788 9.39841 28.4881 9.42183 28.4881H14.3642C16.2121 28.4881 17.5352 27.627 17.5352 25.8691C17.5389 25.4508 17.4069 25.0425 17.1588 24.7056C16.9107 24.3687 16.5601 24.1214 16.1594 24.0009ZM14.1859 26.9272H11.3156V24.8212H14.1859C14.957 24.8212 15.4801 25.2933 15.4801 25.8742C15.4801 26.4551 14.957 26.9272 14.1859 26.9272Z" fill="white"/>
<path d="M38.6499 28.3879L35.7405 24.6684C35.7393 24.6663 35.7376 24.6645 35.7355 24.6633C35.7334 24.662 35.731 24.6614 35.7286 24.6614C35.7262 24.6614 35.7238 24.662 35.7217 24.6633C35.7196 24.6645 35.7179 24.6663 35.7167 24.6684L34.9337 26.5842C34.9308 26.5897 34.9292 26.5958 34.9292 26.602C34.9292 26.6083 34.9308 26.6144 34.9337 26.6199L36.2058 28.3183C36.2426 28.3739 36.2934 28.4188 36.353 28.4486C36.4126 28.4784 36.479 28.492 36.5455 28.4881H38.5938C38.6062 28.4901 38.6189 28.4882 38.6301 28.4828C38.6414 28.4773 38.6507 28.4685 38.6568 28.4576C38.663 28.4467 38.6656 28.4341 38.6643 28.4217C38.6631 28.4092 38.658 28.3974 38.6499 28.3879V28.3879Z" fill="white"/>
<path d="M20.7196 22.0171H19.0212C18.9973 22.0171 18.9744 22.0266 18.9575 22.0435C18.9406 22.0603 18.9312 22.0832 18.9312 22.1071V28.4031C18.9312 28.4149 18.9335 28.4265 18.938 28.4373C18.9426 28.4482 18.9492 28.458 18.9576 28.4662C18.966 28.4744 18.9759 28.4809 18.9868 28.4852C18.9978 28.4896 19.0094 28.4917 19.0212 28.4914H20.7196C20.7432 28.4915 20.7658 28.4822 20.7826 28.4657C20.7995 28.4492 20.8092 28.4267 20.8096 28.4031V22.1037C20.8087 22.0804 20.7988 22.0584 20.7821 22.0422C20.7653 22.0261 20.7429 22.0171 20.7196 22.0171V22.0171Z" fill="white"/>
<path d="M27.7088 19.5085H26.0104C25.9988 19.5085 25.9873 19.5108 25.9766 19.5152C25.9659 19.5197 25.9562 19.5262 25.948 19.5344C25.9398 19.5426 25.9332 19.5523 25.9288 19.563C25.9244 19.5737 25.9221 19.5852 25.9221 19.5968V26.8881C25.7602 26.9031 25.5981 26.8616 25.4634 26.7705C25.3287 26.6795 25.2297 26.5446 25.1833 26.3888L22.8717 20.7348C22.5015 19.9008 21.8527 19.5085 20.623 19.5085H19.0231C19.0114 19.5083 18.9997 19.5104 18.9888 19.5147C18.9779 19.5191 18.968 19.5255 18.9596 19.5338C18.9512 19.542 18.9445 19.5518 18.94 19.5626C18.9354 19.5735 18.9331 19.5851 18.9331 19.5968V21.0218C18.9331 21.0457 18.9426 21.0686 18.9595 21.0854C18.9764 21.1023 18.9992 21.1118 19.0231 21.1118H20.3156C20.8523 21.1118 21.1139 21.2816 21.2973 21.6808L23.5766 27.2652C23.9485 28.0991 24.509 28.4914 25.737 28.4914H27.6392C27.6808 28.4914 27.7207 28.475 27.7503 28.4458C27.7798 28.4165 27.7967 28.3768 27.7971 28.3352V19.5968C27.7971 19.5734 27.7878 19.5509 27.7713 19.5344C27.7547 19.5178 27.7322 19.5085 27.7088 19.5085V19.5085Z" fill="white"/>
</g>
<defs>
<clipPath id="clip0_530_706">
<rect width="29.3333" height="8.98292" fill="white" transform="translate(9.3335 19.5085)"/>
</clipPath>
</defs>
</svg>
