<svg width="48" height="48" viewBox="0 0 48 48" fill="none" xmlns="http://www.w3.org/2000/svg">
<rect x="2" y="2" width="44" height="44" rx="22" fill="#004193"/>
<g clip-path="url(#clip0_536_965)">
<path d="M34.8332 13.1667H13.1665V34.8333H34.8332V13.1667Z" fill="#0091D0"/>
<path d="M13.1665 13.1667L18.5816 18.5849L23.9998 13.1667H13.1665Z" fill="#0091D0"/>
<path d="M13.1665 13.1667V24L18.5816 18.5849L13.1665 13.1667Z" fill="#009AD8"/>
<path d="M23.9998 24L18.5848 18.5817L13.1665 24H23.9998Z" fill="#0091D0"/>
<path d="M24 24V13.1667L18.585 18.5817L24 24Z" fill="#0082C9"/>
<path d="M24 13.1667V24L29.4151 18.5849L24 13.1667Z" fill="#0071BB"/>
<path d="M34.8333 24L29.4182 18.5817L24 24H34.8333Z" fill="#004C98"/>
<path d="M13.1665 24L18.5816 29.4182L23.9998 24H13.1665Z" fill="#0082C9"/>
<path d="M13.1665 24V34.8333L18.5816 29.4183L13.1665 24Z" fill="#0071BB"/>
<path d="M23.9998 34.8333L18.5848 29.4151L13.1665 34.8333H23.9998Z" fill="#0066B3"/>
<path d="M24 34.8333V24L18.585 29.4151L24 34.8333Z" fill="#00529C"/>
<path d="M24 24L29.4151 29.4182L34.8333 24H24Z" fill="#1B3281"/>
<path d="M24 24V34.8333L29.4151 29.4183L24 24Z" fill="#004C98"/>
<path d="M34.8333 34.8333L29.4182 29.4151L24 34.8333H34.8333Z" fill="#1B3281"/>
<path d="M34.8331 34.8333V24L29.418 29.4151L34.8331 34.8333Z" fill="#1B3281"/>
<path d="M24 13.1667L29.4151 18.5849L34.8333 13.1667H24Z" fill="#0066B3"/>
<path d="M34.8331 24V13.1667L29.418 18.5817L34.8331 24Z" fill="#00529C"/>
<path d="M34.8334 26.7091L27.896 20.1041L17.3696 30.6557L21.2086 34.4947L27.896 27.9118L34.8334 34.8112V26.7091Z" fill="white"/>
</g>
<rect x="13.1415" y="13.1417" width="21.7167" height="21.7167" stroke="white" stroke-width="0.05"/>
<defs>
<clipPath id="clip0_536_965">
<rect x="13.1665" y="13.1667" width="21.6667" height="21.6667" fill="white"/>
</clipPath>
</defs>
</svg>
