<svg width="48" height="48" viewBox="0 0 48 48" fill="none" xmlns="http://www.w3.org/2000/svg">
<rect x="2" y="2" width="44" height="44" rx="22" fill="#009490"/>
<g clip-path="url(#clip0_536_960)">
<path d="M27.97 26.1543C27.9102 25.8046 27.8084 25.4634 27.6669 25.1378C27.2556 24.1712 26.5505 23.357 25.6504 22.8097C24.9396 22.3928 24.1284 22.1756 23.3033 22.1814C22.4782 22.1872 21.6701 22.4157 20.9652 22.8425C20.3085 23.2342 19.7763 23.8025 19.4298 24.482C19.3119 24.7142 19.2127 24.9555 19.1333 25.2034C18.9188 25.8472 18.8368 26.5275 18.8923 27.2035C18.9478 27.8796 19.1396 28.5376 19.4562 29.1382C19.6728 29.5059 20.0035 29.7935 20.3985 29.958C20.5956 30.0397 20.8094 30.074 21.0224 30.0581C21.2353 30.0421 21.4415 29.9764 21.6242 29.8662C21.8251 29.7075 21.9752 29.4939 22.0559 29.2516C22.1367 29.0093 22.1447 28.7489 22.0789 28.5021C21.9258 27.8752 21.9417 27.2191 22.125 26.6003C22.1977 26.3979 22.3148 26.2143 22.4676 26.0625C22.5626 25.9715 22.6716 25.8962 22.7905 25.8395C23.0388 25.7153 23.3193 25.6696 23.5945 25.7084C23.8332 25.7597 24.0563 25.8667 24.2453 26.0206C24.4343 26.1746 24.5839 26.371 24.6818 26.5937C24.8648 27.0302 24.961 27.4979 24.9651 27.9709C24.9685 30.1067 24.6509 32.231 24.0228 34.2732C23.9635 34.4831 23.9042 34.6864 23.8515 34.8963C23.7987 35.1061 23.7197 35.257 23.8515 35.4144C23.8975 35.4794 23.9616 35.5295 24.036 35.5586C24.3523 35.6832 24.6027 35.493 24.8136 35.2832C26.0105 34.0072 26.8927 32.4714 27.3901 30.7974C27.5972 30.184 27.7623 29.5574 27.8843 28.9218C28.0726 28.0047 28.106 27.0627 27.9832 26.1346" fill="white"/>
<path d="M36.8266 16.4352C36.8242 16.3631 36.8071 16.2922 36.7762 16.2269C36.7454 16.1616 36.7015 16.1032 36.6472 16.0554C36.593 16.0075 36.5295 15.9711 36.4606 15.9485C36.3918 15.9259 36.319 15.9174 36.2468 15.9237C35.9432 15.9655 35.649 16.0586 35.3769 16.1991C29.8256 18.1764 23.8644 18.7356 18.0396 17.8255C17.0577 17.6813 16.0627 17.4911 15.0742 17.3337C14.4548 17.2353 13.842 17.0976 13.2225 17.0517C12.6625 16.9447 12.0825 17.055 11.6015 17.3599C11.3544 17.6304 11.2012 17.9726 11.1644 18.3363C11.1276 18.7 11.2092 19.0658 11.3972 19.3798C11.8169 20.0952 12.4254 20.6826 13.1566 21.0784C13.8353 21.557 14.6385 21.8303 15.4696 21.8653C17.6661 21.7211 19.8627 21.5025 22.0592 21.2095C25.7824 20.7308 29.6769 20.2783 33.176 18.842C34.3336 18.3839 35.4241 17.7729 36.4181 17.0255C36.596 16.8943 36.853 16.6713 36.853 16.4156" fill="white"/>
<path d="M21.209 14.5793C21.209 15.1446 21.4346 15.6867 21.8363 16.0864C22.2379 16.4861 22.7826 16.7107 23.3506 16.7107C23.9186 16.7107 24.4633 16.4861 24.865 16.0864C25.2666 15.6867 25.4923 15.1446 25.4923 14.5793C25.4919 14.4028 25.4537 14.2284 25.3802 14.0677C25.1957 13.6808 24.9848 13.4906 25.0112 13.025C25.0112 12.402 24.227 12.3692 23.7921 12.3692C23.3086 12.3535 22.8281 12.4501 22.3885 12.6512C22.0472 12.8241 21.7583 13.0844 21.5516 13.4054C21.335 13.733 21.2161 14.115 21.209 14.5071V14.5596" fill="white"/>
</g>
<defs>
<clipPath id="clip0_536_960">
<rect width="25.6667" height="23.2222" fill="white" transform="translate(11.1665 12.3889)"/>
</clipPath>
</defs>
</svg>
