<svg width="48" height="48" viewBox="0 0 48 48" fill="none" xmlns="http://www.w3.org/2000/svg">
<rect x="2" y="2" width="44" height="44" rx="22" fill="#A7D9F5"/>
<g clip-path="url(#clip0_535_781)">
<path d="M23.95 36.9542C26.5127 36.9542 29.0179 36.1942 31.1487 34.7704C33.2795 33.3467 34.9403 31.323 35.921 28.9554C36.9017 26.5877 37.1583 23.9824 36.6584 21.469C36.1584 18.9555 34.9243 16.6467 33.1122 14.8346C31.3001 13.0225 28.9913 11.7884 26.4779 11.2885C23.9644 10.7885 21.3591 11.0451 18.9914 12.0258C16.6238 13.0065 14.6002 14.6673 13.1764 16.7981C11.7526 18.9289 10.9927 21.4341 10.9927 23.9968C10.9927 27.4333 12.3578 30.7291 14.7878 33.159C17.2178 35.589 20.5135 36.9542 23.95 36.9542V36.9542Z" fill="#0083CA"/>
<mask id="mask0_535_781" style="mask-type:alpha" maskUnits="userSpaceOnUse" x="10" y="11" width="27" height="26">
<path d="M23.95 36.9542C26.5127 36.9542 29.0179 36.1943 31.1487 34.7705C33.2795 33.3467 34.9403 31.3231 35.921 28.9554C36.9017 26.5878 37.1583 23.9825 36.6584 21.469C36.1584 18.9555 34.9243 16.6468 33.1122 14.8346C31.3001 13.0225 28.9913 11.7885 26.4779 11.2885C23.9644 10.7885 21.3591 11.0451 18.9914 12.0258C16.6238 13.0066 14.6002 14.6673 13.1764 16.7982C11.7526 18.929 10.9927 21.4341 10.9927 23.9969C10.9927 27.4334 12.3578 30.7291 14.7878 33.1591C17.2178 35.589 20.5135 36.9542 23.95 36.9542V36.9542Z" fill="#0083CA"/>
</mask>
<g mask="url(#mask0_535_781)">
<path d="M23.9938 30.257C29.686 30.257 34.5669 31.8424 36.6578 34.0893C37.3809 32.4362 37.7528 30.6509 37.75 28.8465C37.75 25.1997 36.3014 21.7024 33.7227 19.1237C31.1441 16.5451 27.6468 15.0965 24 15.0965C20.3533 15.0965 16.8559 16.5451 14.2773 19.1237C11.6987 21.7024 10.25 25.1997 10.25 28.8465C10.2474 30.6502 10.6171 32.435 11.336 34.0893C13.4207 31.8424 18.2953 30.257 23.9938 30.257Z" fill="#0083CA"/>
<path d="M23.9938 30.2701C29.6735 30.2701 34.5419 31.8429 36.6266 34.0774C37.3447 32.4361 37.7145 30.6636 37.7126 28.872C37.7126 21.5008 31.5647 15.509 23.9813 15.509C16.3979 15.509 10.25 21.5008 10.25 28.872C10.2475 30.6636 10.6174 32.4362 11.336 34.0774C13.4457 31.8429 18.2953 30.2701 23.9938 30.2701Z" fill="#0085CB"/>
<path d="M23.9939 30.282C29.6549 30.282 34.5108 31.8486 36.5892 34.0581C37.3065 32.4319 37.6764 30.6738 37.6752 28.8964C37.6752 21.5814 31.5398 15.6208 23.9939 15.6208C16.4479 15.6208 10.3125 21.5876 10.3125 28.8964C10.3099 30.674 10.6799 32.4323 11.3985 34.0581C13.4707 31.8486 18.3266 30.282 23.9939 30.282Z" fill="#0086CC"/>
<path d="M23.9874 30.3007C29.6359 30.3007 34.4856 31.8486 36.5578 34.0456C37.2717 32.4425 37.6416 30.7075 37.6438 28.9526C37.6438 21.7 31.5271 15.7643 23.9936 15.7643C16.4602 15.7643 10.356 21.7 10.356 28.9526C10.3519 30.7155 10.7199 32.4595 11.4358 34.0706C13.4955 31.8486 18.3389 30.3007 23.9874 30.3007Z" fill="#0088CC"/>
<path d="M23.9873 30.3132C29.6047 30.3132 34.4543 31.8486 36.5202 34.0269C37.2348 32.4308 37.6028 30.7013 37.6 28.9526C37.6 21.7561 31.5021 15.8454 23.9873 15.8454C16.4726 15.8454 10.3809 21.7499 10.3809 28.9526C10.3784 30.7006 10.7442 32.4296 11.4544 34.0269C13.5203 31.8486 18.3512 30.3132 23.9873 30.3132Z" fill="#0089CD"/>
<path d="M23.9876 30.3257C29.605 30.3257 34.4234 31.8486 36.4706 34.0082C37.18 32.426 37.5459 30.7114 37.5441 28.9775C37.5441 21.8373 31.4587 15.964 23.9689 15.964C16.4791 15.964 10.3999 21.8435 10.3999 28.9775C10.3984 30.7107 10.7621 32.4249 11.4672 34.0082C13.5456 31.8486 18.3703 30.3257 23.9876 30.3257Z" fill="#008BCE"/>
<path d="M23.9873 30.3444C29.6047 30.3444 34.3981 31.8486 36.4703 33.9957C37.1789 32.4265 37.5449 30.7243 37.5438 29.0025C37.5438 21.9246 31.4771 16.0826 24.0061 16.0826C16.535 16.0826 10.4683 21.9246 10.4683 29.0025C10.4675 30.7236 10.8313 32.4253 11.5356 33.9957C13.5703 31.8486 18.3825 30.3444 23.9873 30.3444Z" fill="#008DCF"/>
<path d="M23.9813 30.3569C29.5986 30.3569 34.3671 31.8549 36.4206 33.977C37.1243 32.4218 37.4881 30.7344 37.4879 29.0275C37.4879 22.012 31.4399 16.195 23.9813 16.195C16.5227 16.195 10.481 22.012 10.481 29.0275C10.4801 30.7345 10.844 32.422 11.5482 33.977C13.5955 31.8549 18.3952 30.3569 23.9813 30.3569Z" fill="#008ED0"/>
<path d="M23.9815 30.3694C29.5551 30.3694 34.3423 31.8549 36.3833 33.9583C37.0904 32.4196 37.4545 30.7457 37.4506 29.0524C37.4506 22.0932 31.4151 16.3136 23.9815 16.3136C16.5478 16.3136 10.5186 22.0994 10.5186 29.0524C10.5151 30.745 10.877 32.4184 11.5796 33.9583C13.6206 31.8549 18.4078 30.3694 23.9815 30.3694Z" fill="#0090D0"/>
<path d="M23.9815 30.3881C29.5364 30.3881 34.3111 31.8549 36.3521 33.9458C37.0534 32.4187 37.4154 30.7578 37.4132 29.0774C37.4132 22.2118 31.3964 16.4259 23.9815 16.4259C16.5666 16.4259 10.5498 22.1806 10.5498 29.0774C10.5499 30.7575 10.9118 32.418 11.6109 33.9458C13.6518 31.8549 18.4203 30.3881 23.9815 30.3881Z" fill="#0092D1"/>
<path d="M23.9815 30.4006C29.524 30.4006 34.28 31.8549 36.3209 33.927C37.0185 32.4142 37.3805 30.7683 37.382 29.1024C37.382 22.2367 31.3777 16.5382 23.9815 16.5382C16.5853 16.5382 10.5811 22.2679 10.5811 29.1024C10.5812 30.7684 10.9432 32.4146 11.6421 33.927C13.6768 31.8549 18.4328 30.4006 23.9815 30.4006Z" fill="#0093D2"/>
<path d="M23.975 30.4131C29.5049 30.4131 34.2547 31.8611 36.2832 33.9083C36.9812 32.4111 37.3434 30.7793 37.3442 29.1273C37.3442 22.3491 31.3524 16.6443 23.975 16.6443C16.5975 16.6443 10.6182 22.3428 10.6182 29.1273C10.6163 30.7789 10.9763 32.4108 11.673 33.9083C13.7015 31.8611 18.445 30.4131 23.975 30.4131Z" fill="#0095D3"/>
<path d="M23.975 30.4318C29.4862 30.4318 34.2235 31.8611 36.252 33.8958C36.9474 32.4112 37.3075 30.7917 37.3068 29.1523C37.3068 22.4364 31.3337 16.7692 23.975 16.7692C16.6163 16.7692 10.6494 22.4364 10.6494 29.1523C10.6475 30.7918 11.0077 32.4116 11.7042 33.8958C13.7265 31.8611 18.4575 30.4318 23.975 30.4318Z" fill="#0097D4"/>
<path d="M23.975 30.4443C29.4738 30.4443 34.1986 31.8611 36.2146 33.8771C36.9091 32.4098 37.2693 30.8068 37.2694 29.1835C37.2694 22.5238 31.315 16.8878 23.975 16.8878C16.6351 16.8878 10.6807 22.5051 10.6807 29.1835C10.6801 30.8069 11.0404 32.41 11.7355 33.8771C13.7515 31.8611 18.4701 30.4443 23.975 30.4443Z" fill="#0098D5"/>
<path d="M23.9689 30.4568C29.4552 30.4568 34.1675 31.8611 36.1835 33.8584C36.8729 32.4051 37.231 30.8169 37.2321 29.2085C37.2321 22.605 31.2902 17.0001 23.9689 17.0001C16.6477 17.0001 10.7183 22.6175 10.7183 29.2085C10.7179 30.8171 11.0761 32.4056 11.7668 33.8584C13.7766 31.8611 18.4827 30.4568 23.9689 30.4568Z" fill="#009AD5"/>
<path d="M23.969 30.4693C29.4365 30.4693 34.1364 31.8674 36.1461 33.8459C36.8346 32.4056 37.1929 30.8298 37.1947 29.2334C37.1947 22.6924 31.2715 17.1187 23.969 17.1187C16.6664 17.1187 10.7495 22.6924 10.7495 29.2334C10.7499 30.83 11.1082 32.4061 11.7981 33.8459C13.8016 31.8674 18.4952 30.4693 23.969 30.4693Z" fill="#009CD6"/>
<path d="M23.969 30.488C29.424 30.488 34.1114 31.8673 36.1149 33.8272C36.7985 32.401 37.1546 30.84 37.1572 29.2584C37.1572 22.7797 31.2465 17.231 23.969 17.231C16.6914 17.231 10.8057 22.7797 10.8057 29.2584C10.8068 30.8408 11.1652 32.4026 11.8542 33.8272C13.8265 31.8673 18.5077 30.488 23.969 30.488Z" fill="#009ED7"/>
<path d="M23.969 30.5004C29.4053 30.5004 34.0802 31.8673 36.0775 33.8084C36.7636 32.3987 37.1201 30.8512 37.1198 29.2834C37.1198 22.8609 31.2278 17.3434 23.969 17.3434C16.7101 17.3434 10.8057 22.8609 10.8057 29.2834C10.8039 30.8514 11.1604 32.3992 11.848 33.8084C13.8515 31.8673 18.5201 30.5004 23.969 30.5004Z" fill="#00A0D8"/>
<path d="M23.9628 30.513C29.3866 30.513 34.0553 31.8674 36.0463 33.796C36.7275 32.398 37.0818 30.8634 37.0824 29.3084C37.0824 22.9483 31.2092 17.4495 23.9753 17.4495C16.7414 17.4495 10.8682 22.9358 10.8682 29.3084C10.8681 30.8635 11.2225 32.3982 11.9043 33.796C13.8766 31.8674 18.5327 30.513 23.9628 30.513Z" fill="#00A1D9"/>
<path d="M23.9626 30.5317C29.374 30.5317 34.0239 31.8736 36.0087 33.7772C36.6897 32.3948 37.0441 30.8744 37.0448 29.3333C37.0448 23.0356 31.1841 17.5743 23.9377 17.5743C16.6913 17.5743 10.8306 23.0356 10.8306 29.3333C10.8335 30.8741 11.1878 32.394 11.8667 33.7772C13.9263 31.8736 18.5513 30.5317 23.9626 30.5317Z" fill="#00A3DA"/>
<path d="M23.9627 30.5441C29.3553 30.5441 33.9927 31.8736 35.9775 33.7585C36.6515 32.4002 37.0059 30.9058 37.0136 29.3895C37.0136 23.148 31.1654 17.7241 23.9627 17.7241C16.76 17.7241 10.918 23.148 10.918 29.3895C10.9235 30.9053 11.2758 32.3998 11.9478 33.7585C13.9264 31.8736 18.5638 30.5441 23.9627 30.5441Z" fill="#00A5DB"/>
<path d="M23.9627 30.5566C29.3366 30.5566 33.9491 31.8736 35.9401 33.746C36.6209 32.3902 36.9757 30.8941 36.9762 29.377C36.9762 23.1979 31.1467 17.799 23.9627 17.799C16.7788 17.799 10.9492 23.1979 10.9492 29.377C10.9491 30.8935 11.3017 32.3892 11.9791 33.746C13.9264 31.8736 18.5763 30.5566 23.9627 30.5566Z" fill="#00A7DC"/>
<path d="M23.9561 30.5754C29.3238 30.5754 33.9425 31.8736 35.9086 33.7273C36.5833 32.3896 36.936 30.9127 36.9384 29.4144C36.9384 23.2915 31.1214 17.9239 23.9561 17.9239C16.7909 17.9239 10.9863 23.2915 10.9863 29.4144C10.9866 30.9122 11.3371 32.3891 12.0099 33.7273C13.976 31.8736 18.5885 30.5754 23.9561 30.5754Z" fill="#00A9DD"/>
<path d="M23.9562 30.5878C29.3051 30.5878 33.9114 31.8798 35.8712 33.7086C36.5459 32.3865 36.8987 30.9237 36.901 29.4394C36.901 23.3727 31.1027 18.0362 23.9562 18.0362C16.8097 18.0362 11.0176 23.3727 11.0176 29.4394C11.0201 30.9229 11.3707 32.3852 12.0412 33.7086C14.001 31.8798 18.601 30.5878 23.9562 30.5878Z" fill="#00ABDE"/>
<path d="M23.9563 30.6003C29.2928 30.6003 33.8803 31.8798 35.8151 33.7211C36.4841 32.4105 36.8348 30.9607 36.8387 29.4893C36.8387 23.485 31.0591 18.1797 23.9313 18.1797C16.8035 18.1797 11.0239 23.485 11.0239 29.4893C11.0337 30.9528 11.3864 32.3936 12.0538 33.6961C14.0323 31.8798 18.6136 30.6003 23.9563 30.6003Z" fill="#00ADDE"/>
<path d="M23.9502 30.6128C29.2742 30.6128 33.8492 31.8611 35.8091 33.6774C36.4806 32.3834 36.8316 30.9472 36.8327 29.4893C36.8327 23.5475 31.0655 18.2547 23.9565 18.2547C16.8474 18.2547 11.0928 23.535 11.0928 29.4893C11.0941 30.9464 11.4428 32.3821 12.1101 33.6774C14.0575 31.8798 18.6263 30.6128 23.9502 30.6128Z" fill="#00AFDF"/>
<path d="M23.9502 30.6315C29.2554 30.6315 33.8242 31.8798 35.7716 33.6586C36.438 32.3787 36.7869 30.9573 36.7889 29.5143C36.7889 23.6286 31.0405 18.3795 23.9502 18.3795C16.8598 18.3795 11.1177 23.6286 11.1177 29.5143C11.1189 30.9574 11.4679 32.379 12.135 33.6586C14.0824 31.8798 18.6387 30.6315 23.9502 30.6315Z" fill="#00B1E0"/>
<path d="M23.9502 30.644C29.243 30.644 33.7931 31.8923 35.7342 33.6462C36.4003 32.3796 36.7494 30.9704 36.7515 29.5393C36.7515 23.716 31.0218 18.4981 23.9502 18.4981C16.8786 18.4981 11.1489 23.716 11.1489 29.5393C11.1503 30.9704 11.4994 32.3799 12.1663 33.6462C14.1074 31.8861 18.6512 30.644 23.9502 30.644Z" fill="#00B3E1"/>
<path d="M23.9499 30.6565C29.2239 30.6565 33.7678 31.9048 35.7026 33.6274C36.364 32.375 36.711 30.9806 36.7137 29.5642C36.7137 23.7971 30.9965 18.6104 23.9499 18.6104C16.9032 18.6104 11.186 23.8033 11.186 29.5642C11.1888 30.9806 11.5358 32.375 12.1972 33.6274C14.132 31.8861 18.6633 30.6565 23.9499 30.6565Z" fill="#0DB5E2"/>
<path d="M23.9437 30.6752C29.2052 30.6752 33.7366 31.8861 35.6652 33.6087C36.326 32.3718 36.6733 30.9916 36.6763 29.5892C36.6763 23.8845 30.9778 18.729 23.9437 18.729C16.9095 18.729 11.2173 23.8845 11.2173 29.5892C11.2204 30.9916 11.5675 32.3718 12.2284 33.6087C14.157 31.8861 18.6759 30.6752 23.9437 30.6752Z" fill="#19B7E3"/>
<path d="M23.9437 30.6877C29.1928 30.6877 33.7054 31.8861 35.634 33.5962C36.2932 32.3744 36.6406 31.0087 36.6452 29.6204C36.6452 24.0031 30.9592 18.8414 23.9437 18.8414C16.9283 18.8414 11.2485 23.9719 11.2485 29.6204C11.2524 31.0088 11.5997 32.3747 12.2597 33.5962C14.182 31.8861 18.6884 30.6877 23.9437 30.6877Z" fill="#21B9E4"/>
<path d="M23.9439 30.7002C29.1742 30.7002 33.6806 31.8923 35.603 33.5775C36.2569 32.3697 36.6021 31.0189 36.6079 29.6454C36.6079 24.028 30.9343 18.96 23.9439 18.96C16.9534 18.96 11.2861 24.053 11.2861 29.6454C11.2889 31.0185 11.632 32.3695 12.2848 33.5775C14.2072 31.8923 18.701 30.7002 23.9439 30.7002Z" fill="#28BBE5"/>
<path d="M23.9437 30.7314C29.1678 30.7314 33.668 31.9173 35.5841 33.59C36.2387 32.3914 36.584 31.0485 36.589 29.6828C36.589 24.1341 30.9279 19.0723 23.9437 19.0723C16.9595 19.0723 11.3047 24.1466 11.3047 29.6828C11.3067 31.0481 11.6499 32.3912 12.3033 33.59C14.2195 31.9173 18.7133 30.7314 23.9437 30.7314Z" fill="#37BDE6"/>
<path d="M23.9439 30.7688C29.1618 30.7688 33.6557 31.9423 35.5656 33.6087C36.2211 32.4173 36.5666 31.0802 36.5704 29.7203C36.5704 24.209 30.9156 19.1659 23.9439 19.1659C16.9722 19.1659 11.3174 24.209 11.3174 29.7203C11.324 31.079 11.6671 32.4149 12.316 33.6087C14.2322 31.9423 18.7198 30.7688 23.9439 30.7688Z" fill="#43BFE6"/>
<path d="M23.9437 30.825C29.1554 30.825 33.6368 31.9922 35.5529 33.6462C36.2037 32.4644 36.5471 31.138 36.5515 29.7889C36.5515 24.3089 30.9342 19.297 23.9437 19.297C16.9533 19.297 11.3359 24.2902 11.3359 29.7889C11.3396 31.1381 11.683 32.4647 12.3346 33.6462C14.2445 31.9672 18.7258 30.825 23.9437 30.825Z" fill="#4DC0E7"/>
<path d="M23.9441 30.825C29.1495 30.825 33.6246 31.9859 35.5345 33.6275C36.1879 32.4555 36.5337 31.137 36.5394 29.7952C36.5394 24.3526 30.922 19.3719 23.9441 19.3719C16.9661 19.3719 11.355 24.3651 11.355 29.7952C11.3596 31.1356 11.7008 32.4533 12.3474 33.6275C14.2573 31.9922 18.7324 30.825 23.9441 30.825Z" fill="#56C2E8"/>
<path d="M23.9439 30.8687C29.143 30.8687 33.612 32.0171 35.5219 33.6462C36.1695 32.4835 36.513 31.176 36.5205 29.8451C36.5205 24.44 30.9031 19.4842 23.9439 19.4842C16.9846 19.4842 11.3735 24.44 11.3735 29.8451C11.3753 31.1759 11.7168 32.4843 12.3659 33.6462C14.2696 32.0171 18.7385 30.8687 23.9439 30.8687Z" fill="#5EC4E8"/>
<path d="M23.9436 30.8999C29.1303 30.8999 33.5992 32.0421 35.5029 33.6649C36.1531 32.51 36.4969 31.2079 36.5015 29.8826C36.5015 24.5149 30.8842 19.5903 23.9436 19.5903C17.0031 19.5903 11.3857 24.5149 11.3857 29.8826C11.3912 31.207 11.7326 32.5084 12.3781 33.6649C14.288 32.0733 18.7445 30.8999 23.9436 30.8999Z" fill="#65C6E9"/>
<path d="M23.9439 30.9311C29.1243 30.9311 33.587 32.0671 35.4906 33.6774C36.1338 32.5335 36.4753 31.2448 36.483 29.9325C36.483 24.6023 30.8657 19.7089 23.9439 19.7089C17.0221 19.7089 11.4297 24.5835 11.4297 29.92C11.4366 31.2324 11.7781 32.5213 12.4221 33.6649C14.3008 32.0733 18.7572 30.9311 23.9439 30.9311Z" fill="#6DC7EA"/>
<path d="M23.9439 30.9623C29.1181 30.9623 33.5745 32.092 35.4719 33.6898C36.12 32.548 36.4619 31.2579 36.4643 29.945C36.4643 24.6459 30.847 19.7838 23.9439 19.7838C17.0408 19.7838 11.4297 24.6647 11.4297 29.9637C11.4299 31.2761 11.7696 32.5662 12.4158 33.7086C14.3132 32.0733 18.7634 30.9623 23.9439 30.9623Z" fill="#74C9EA"/>
<path d="M23.9438 30.9998C29.1118 30.9998 33.562 32.117 35.4594 33.7086C36.1008 32.5776 36.4424 31.3013 36.4518 30.0011C36.4518 24.7396 30.8345 19.9087 23.9688 19.9087C17.1032 19.9087 11.4858 24.7458 11.4858 30.0011C11.4894 31.3013 11.8291 32.5785 12.472 33.7086C14.3257 32.117 18.7697 30.9998 23.9438 30.9998Z" fill="#7ACBEB"/>
<path d="M23.944 31.031C29.1057 31.031 33.5497 32.142 35.4408 33.7211C36.0847 32.6024 36.4267 31.3355 36.4332 30.0448C36.4332 24.8207 30.8159 20.0147 23.9503 20.0147C17.0846 20.0147 11.4673 24.8207 11.4673 30.0448C11.474 31.3347 11.8137 32.601 12.4535 33.7211C14.3384 32.142 18.7761 31.031 23.944 31.031Z" fill="#81CDEC"/>
<path d="M23.9437 31.0622C29.0992 31.0622 33.5369 32.1669 35.428 33.7335C36.0671 32.6223 36.4069 31.3642 36.4142 30.0823C36.4142 24.8956 30.8281 20.0959 23.9312 20.0959C17.0344 20.0959 11.4482 24.8769 11.4482 30.0823C11.4518 31.3647 11.7918 32.6237 12.4344 33.7335C14.3505 32.1669 18.782 31.0622 23.9437 31.0622Z" fill="#87CFEC"/>
<path d="M23.9439 31.0997C29.0932 31.0997 33.5184 32.1919 35.4096 33.746C36.049 32.644 36.389 31.3938 36.3957 30.1197C36.3957 24.9705 30.8158 20.2207 23.9439 20.2207C17.0721 20.2207 11.4922 24.9705 11.4922 30.1197C11.4967 31.3933 11.8346 32.6435 12.4721 33.746C14.3633 32.1919 18.7885 31.0997 23.9439 31.0997Z" fill="#8ED1ED"/>
<path d="M23.9438 31.1308C29.0868 31.1308 33.5057 32.2169 35.3969 33.7647C36.0346 32.6711 36.3746 31.4294 36.3831 30.1634C36.3831 25.0454 30.8094 20.3268 23.9438 20.3268C17.0781 20.3268 11.5107 25.0516 11.5107 30.1634C11.5162 31.429 11.8541 32.6709 12.4907 33.7647C14.3756 32.2169 18.8008 31.1308 23.9438 31.1308Z" fill="#94D3EE"/>
<path d="M23.944 31.1621C29.0808 31.1621 33.4935 32.2418 35.3784 33.7772C36.0277 32.696 36.3788 31.462 36.3958 30.2009C36.3958 25.1203 30.8284 20.433 23.9752 20.433C17.1221 20.433 11.5547 25.1265 11.5547 30.2009C11.5601 31.4586 11.8981 32.6925 12.5346 33.7772C14.3883 32.2418 18.8073 31.1621 23.944 31.1621Z" fill="#9AD5EF"/>
<path d="M23.9438 31.1932C29.0743 31.1932 33.4808 32.2668 35.3595 33.7897C35.9967 32.7163 36.3371 31.4928 36.3457 30.2445C36.3457 25.2014 30.7907 20.539 23.9438 20.539C17.0969 20.539 11.542 25.2014 11.542 30.2445C11.5475 31.4924 11.8858 32.7162 12.5219 33.7897C14.4006 32.2668 18.8133 31.1932 23.9438 31.1932Z" fill="#A0D7F0"/>
<path d="M23.9437 31.2307C29.0679 31.2307 33.4682 32.2918 35.3469 33.8022C35.9798 32.7364 36.318 31.5215 36.3268 30.282C36.3268 25.2888 30.7781 20.6451 23.9437 20.6451C17.1092 20.6451 11.5605 25.2763 11.5605 30.282C11.5641 31.5214 11.9004 32.7371 12.5342 33.8022C14.4129 32.2918 18.8194 31.2307 23.9437 31.2307Z" fill="#A6D9F0"/>
<path d="M23.944 31.2619C29.062 31.2619 33.456 32.3167 35.3285 33.8209C35.966 32.7637 36.3067 31.5541 36.3146 30.3195C36.3146 25.3263 30.7722 20.7513 23.944 20.7513C17.1158 20.7513 11.5796 25.3575 11.5796 30.3195C11.5837 31.5529 11.9201 32.7624 12.5533 33.8209C14.4257 32.3167 18.826 31.2619 23.944 31.2619Z" fill="#ACDCF1"/>
<path d="M23.9438 31.2931C29.0493 31.2931 33.4434 32.3417 35.3158 33.8334C35.9475 32.7854 36.2859 31.5868 36.2957 30.3631C36.2957 25.4261 30.7595 20.8574 23.9438 20.8574C17.1281 20.8574 11.5981 25.4324 11.5981 30.3631C11.6035 31.5857 11.9377 32.7844 12.5656 33.8334C14.4443 32.3417 18.832 31.2931 23.9438 31.2931Z" fill="#B2DEF2"/>
<path d="M23.944 31.3243C29.0433 31.3243 33.4311 32.3667 35.2973 33.8209C35.9289 32.782 36.2676 31.5915 36.2772 30.3756C36.2772 25.4823 30.7472 20.9385 23.944 20.9385C17.1408 20.9385 11.6108 25.4823 11.6108 30.3756C11.6145 31.5915 11.9513 32.783 12.5845 33.8209C14.457 32.3667 18.8447 31.3243 23.944 31.3243Z" fill="#B8E0F3"/>
<path d="M23.9438 31.3618C29.0369 31.3618 33.4184 32.3916 35.2846 33.8584C35.9124 32.8272 36.2488 31.6452 36.2583 30.438C36.2583 25.5759 30.7408 21.0758 23.9438 21.0758C17.1469 21.0758 11.6294 25.5884 11.6294 30.438C11.6348 31.6458 11.9715 32.8289 12.6031 33.8584C14.4693 32.3916 18.8508 31.3618 23.9438 31.3618Z" fill="#BDE2F4"/>
<path d="M23.9437 31.393C29.0305 31.393 33.4058 32.4166 35.2657 33.8896C35.894 32.8679 36.2308 31.6936 36.2394 30.4942C36.2394 25.6695 30.7282 21.1819 23.9437 21.1819C17.1592 21.1819 11.6479 25.6758 11.6479 30.4942C11.6534 31.6932 11.9881 32.8677 12.6154 33.8896C14.4816 32.4166 18.8569 31.393 23.9437 31.393Z" fill="#C3E5F5"/>
<path d="M23.944 31.4492C29.0246 31.4492 33.3874 32.4665 35.2536 33.9146C35.879 32.9007 36.2157 31.7353 36.2273 30.5442C36.2273 25.7569 30.7222 21.3005 23.944 21.3005C17.1657 21.3005 11.667 25.7632 11.667 30.5442C11.6704 31.7348 12.003 32.9013 12.6282 33.9146C14.4944 32.4416 18.8634 31.4492 23.944 31.4492Z" fill="#C9E7F5"/>
<path d="M23.9437 31.4492C29.0181 31.4492 33.3746 32.4541 35.2346 33.8896C35.8595 32.887 36.1964 31.7317 36.2083 30.5504C36.2083 25.7944 30.7095 21.3692 23.9437 21.3692C17.1779 21.3692 11.6792 25.8318 11.6792 30.5629C11.685 31.7442 12.02 32.9006 12.6466 33.9021C14.5066 32.4665 18.8694 31.4492 23.9437 31.4492Z" fill="#CEE9F6"/>
<path d="M23.944 31.4928C29.0121 31.4928 33.3625 32.4915 35.2224 33.9208C35.8445 32.9242 36.1793 31.7751 36.1899 30.6003C36.1899 25.888 30.7036 21.4877 23.944 21.4877C17.1845 21.4877 11.6982 25.888 11.6982 30.6003C11.7036 31.7854 12.0432 32.945 12.6782 33.9457C14.5506 32.4915 18.876 31.4928 23.944 31.4928Z" fill="#D4ECF7"/>
<path d="M23.9439 31.5241C29.0058 31.5241 33.3498 32.5165 35.1786 33.9333C35.8018 32.9487 36.1369 31.8093 36.146 30.644C36.146 25.9629 30.666 21.5939 23.919 21.5939C17.1719 21.5939 11.6919 25.9629 11.6919 30.644C11.7016 31.8158 12.0435 32.9607 12.678 33.9458C14.5505 32.5165 18.9195 31.5241 23.9439 31.5241Z" fill="#DAEEF8"/>
<path d="M23.9441 31.5553C28.9997 31.5553 33.3375 32.5414 35.1787 33.9457C35.8021 32.9701 36.1395 31.8392 36.1524 30.6815C36.1524 26.0378 30.6724 21.7 23.9378 21.7C17.2033 21.7 11.7295 26.069 11.7295 30.6815C11.734 31.8369 12.0627 32.9679 12.6782 33.9457C14.5506 32.5414 18.9197 31.5553 23.9441 31.5553Z" fill="#DFF1F9"/>
<path d="M23.944 31.5927C28.9934 31.5927 33.3063 32.5664 35.1787 33.9582C35.8007 32.9915 36.1361 31.8684 36.1461 30.7189C36.1461 26.1127 30.6786 21.8061 23.9503 21.8061C17.2219 21.8061 11.7544 26.1189 11.7544 30.7189C11.7591 31.8683 12.0927 32.9923 12.7156 33.9582C14.5506 32.5664 18.9196 31.5927 23.944 31.5927Z" fill="#E5F3FA"/>
<path d="M23.9437 31.6239C28.9868 31.6239 33.3059 32.5914 35.1784 33.977C35.7983 33.0185 36.1338 31.904 36.1458 30.7626C36.1458 26.1938 30.6845 21.9122 23.9687 21.9122C17.2528 21.9122 11.7915 26.1938 11.7915 30.7626C11.7991 31.9028 12.1303 33.0175 12.7465 33.977C14.5502 32.5914 18.9193 31.6239 23.9437 31.6239Z" fill="#EBF6FB"/>
<path d="M23.9441 31.6551C28.9809 31.6551 33.3063 32.6163 35.1413 33.9895C35.757 33.0387 36.0903 31.9327 36.1025 30.8001C36.1025 26.2687 30.6537 22.0183 23.9441 22.0183C17.2345 22.0183 11.7856 26.2687 11.7856 30.825C11.7925 31.9576 12.1239 33.0645 12.7406 34.0144C14.5818 32.6163 18.9197 31.6551 23.9441 31.6551Z" fill="#F1F8FD"/>
<path d="M23.9439 31.6864C28.9745 31.6864 33.3061 32.6413 35.1224 34.0019C35.7432 33.0582 36.0771 31.9547 36.0836 30.825C36.0836 26.3249 30.641 22.0869 23.9439 22.0869C17.2468 22.0869 11.8042 26.3124 11.8042 30.825C11.8099 31.9471 12.1393 33.0437 12.7529 33.9832C14.6004 32.6413 18.9195 31.6864 23.9439 31.6864Z" fill="#F7FBFE"/>
<path d="M23.9436 31.7238C28.9368 31.7238 33.2684 32.6663 35.1096 34.0207C35.7205 33.0931 36.0539 32.0104 36.0708 30.8999C36.0708 26.4372 30.6345 22.2492 23.9436 22.2492C17.2527 22.2492 11.8164 26.4435 11.8164 30.8999C11.828 32.0104 12.1595 33.0939 12.7714 34.0207C14.6126 32.6975 18.9192 31.7238 23.9436 31.7238Z" fill="white"/>
<path d="M23.9438 27.2674C19.9041 27.2302 15.8896 27.9063 12.085 29.2647C13.1039 31.553 14.7642 33.4969 16.865 34.8612C18.9658 36.2254 21.417 36.9515 23.922 36.9515C26.4269 36.9515 28.8781 36.2254 30.9789 34.8612C33.0797 33.4969 34.74 31.553 35.7589 29.2647C31.9686 27.9096 27.969 27.2335 23.9438 27.2674V27.2674Z" fill="#0083CA"/>
</g>
</g>
<defs>
<clipPath id="clip0_535_781">
<rect width="27.5" height="27.2066" fill="white" transform="translate(10.25 10.3966)"/>
</clipPath>
</defs>
</svg>
