<svg width="48" height="48" viewBox="0 0 48 48" fill="none" xmlns="http://www.w3.org/2000/svg">
<rect x="2" y="2" width="44" height="44" rx="22" fill="#004898"/>
<g clip-path="url(#clip0_530_729)">
<path d="M36.6844 20.4954C36.9265 19.7644 36.8684 18.9671 36.523 18.2789C36.1776 17.5906 35.5731 17.0676 34.8423 16.8248L19.6319 11.7186C19.2699 11.5957 18.887 11.5462 18.5056 11.573C18.1242 11.5997 17.752 11.7022 17.4106 11.8744" fill="white"/>
<path d="M17.4105 11.8744C16.7217 12.2191 16.198 12.8232 15.9544 13.5539L11.3155 27.4978C11.0752 28.2289 11.1341 29.0253 11.4793 29.7131C11.8244 30.4009 12.4278 30.9241 13.1575 31.1684L28.3747 36.2746C28.737 36.396 29.1197 36.4447 29.5008 36.418C29.882 36.3913 30.2541 36.2896 30.596 36.1189C30.937 35.9493 31.2409 35.7135 31.4897 35.4251C31.7386 35.1367 31.9274 34.8016 32.0452 34.4393L36.6909 20.4954" fill="white"/>
<path d="M24.8531 25.2698C24.0157 26.2081 22.9695 26.9366 21.7988 27.3963L21.1216 27.6604V21.1997L21.7988 21.4638C22.971 21.9211 24.0195 22.6471 24.8599 23.5835C25.3917 22.7133 25.7271 21.7375 25.8425 20.7242C25.958 19.711 25.8507 18.6847 25.5282 17.7172C25.2057 16.7497 24.6758 15.8644 23.9755 15.123C23.2751 14.3816 22.4213 13.8022 21.4738 13.4252L19.2525 12.6667C19.0173 12.5895 18.7691 12.5595 18.5223 12.5783C18.2754 12.5971 18.0347 12.6645 17.8139 12.7764C17.5931 12.8884 17.3966 13.0428 17.2356 13.2308C17.0745 13.4189 16.9521 13.6368 16.8754 13.8722L12.2229 27.8297C12.071 28.3102 12.1145 28.8312 12.3439 29.2799C12.5733 29.7286 12.9702 30.0688 13.4487 30.227L24.0066 33.7486C25.0596 32.6242 25.712 31.1837 25.8626 29.6506C26.0132 28.1175 25.6536 26.5776 24.8396 25.2698H24.8531ZM18.7446 20.8137V28.0599H17.6949V20.834L18.7446 20.8137Z" fill="#2293C8"/>
<path d="M24.2437 24.4232C23.649 23.7287 22.9273 23.1541 22.1172 22.7302V26.1163C22.9307 25.6889 23.653 25.1069 24.2437 24.4029" fill="#E43D30"/>
<path d="M34.5104 17.7526L24.8193 14.5155C26.0366 15.8467 26.7664 17.5514 26.8894 19.3511C27.0125 21.1507 26.5214 22.9388 25.4966 24.4233C26.4924 25.8634 26.9868 27.591 26.9036 29.3399C26.8204 31.0888 26.1641 32.7617 25.036 34.1008L28.6795 35.313C28.9147 35.3911 29.163 35.4219 29.4101 35.4035C29.6573 35.3851 29.8983 35.3179 30.1193 35.2058C30.3403 35.0937 30.537 34.939 30.6978 34.7504C30.8587 34.5619 30.9806 34.3434 31.0565 34.1075L35.7294 20.1568C35.8834 19.6772 35.8417 19.1562 35.6134 18.7071C35.3851 18.2581 34.9887 17.9175 34.5104 17.7594V17.7526ZM31.9437 28.0464H30.6299L27.921 24.4233L30.6299 20.8069H31.9843L29.2754 24.4368L31.9437 28.0464Z" fill="#215C9C"/>
</g>
<defs>
<clipPath id="clip0_530_729">
<rect width="25.6667" height="24.8608" fill="white" transform="translate(11.1665 11.5696)"/>
</clipPath>
</defs>
</svg>
