<svg width="48" height="48" viewBox="0 0 48 48" fill="none" xmlns="http://www.w3.org/2000/svg">
<rect x="2" y="2" width="44" height="44" rx="22" fill="#0046FF"/>
<path d="M36.9841 23.4213C36.9933 23.6115 36.9988 23.8005 37 23.989V23.9993C37 30.0136 32.9168 35.0744 27.3703 36.5591C26.4601 36.8009 25.5266 36.9441 24.5857 36.9863C24.3025 36.9991 24.0204 37.0028 23.7401 36.9979C17.1612 36.8691 11.7807 31.8526 11.0778 25.4293C11.0479 25.1511 11.0272 24.872 11.0159 24.5924C11.0066 24.4039 11.0013 24.2153 11 24.0266V23.9993C11 16.821 16.8195 11 23.9997 11C30.1232 11 35.2563 15.233 36.6358 20.9307C36.8319 21.7477 36.9486 22.5818 36.9841 23.4213ZM30.8613 17.4756C30.1007 17.2654 29.5383 17.0849 29.3724 16.7354C29.2939 16.5701 29.3419 16.4036 29.4502 16.3257C29.5675 16.24 29.7256 16.2686 29.9098 16.3586C30.1822 16.4905 30.5153 16.6862 30.7713 16.7177C31.5166 16.8077 31.3805 15.6676 30.0411 15.0057C29.2532 14.6143 28.4822 14.4539 27.4378 14.4927C27.0511 14.5086 26.6863 14.4946 26.3628 14.4435C25.8747 14.3682 25.2764 14.1609 24.8734 14.0771C24.5651 14.012 24.3894 14.0206 24.3158 14.1233C24.2478 14.2205 24.2696 14.364 24.4575 14.6016C24.8345 15.0768 25.4285 15.6055 25.1244 16.8424C24.3724 19.9084 25.4023 21.3117 26.4517 21.5421C27.0396 21.6728 27.5812 21.5348 27.912 21.1915C28.2263 20.8626 28.3619 20.3065 28.0592 19.8356C27.5959 19.1141 27.4323 18.4869 27.8463 18.2262C28.2245 17.9874 28.7619 18.2074 29.1705 19.1214C29.824 20.5861 30.6746 20.9744 31.5252 19.9328C32.2219 19.0795 32.1946 17.844 30.8613 17.4756ZM28.4945 25.4785C24.9688 23.366 23.2203 22.5303 21.7933 21.5117C19.4289 19.8258 19.0551 18.5696 18.9827 17.6957C18.8538 16.1313 20.0376 14.7231 21.2425 14.0594C21.3356 14.0029 21.4949 13.8729 21.4255 13.6948C21.3556 13.5149 21.1398 13.5496 21.059 13.5671C18.3638 14.1391 15.7447 16.5123 16.1514 19.6806C16.3137 20.9355 17.1119 23.0548 21.2455 25.4889C22.6554 26.3185 23.8726 26.9475 25.7835 28.0414C28.3711 29.5207 29.5621 31.4266 27.9594 33.5057C27.8378 33.651 27.7332 33.8017 27.777 33.933C27.8263 34.0849 28.0263 34.1111 28.213 34.0272C29.4429 33.4607 30.4588 32.6105 30.9428 31.8223C31.7946 30.4342 32.2189 27.7121 28.4945 25.4785ZM24.3706 33.9142C24.0581 33.8242 23.5838 33.6771 23.1887 33.5045C22.6901 33.287 22.2396 33.0481 22.0408 32.8512C21.9107 32.7205 21.8906 32.5728 21.9946 32.4209C22.5904 31.5646 22.7582 31.2254 22.9248 30.8225C23.2786 29.9692 22.929 29.8866 22.38 30.0446C21.783 30.2153 21.3106 30.3898 20.9446 30.5272C20.4315 30.7186 20.1142 30.8359 19.9275 30.7447C19.7329 30.6505 19.6971 30.3126 19.6271 29.7523C19.5779 29.3536 19.494 28.899 19.387 28.4553C19.1663 27.5662 18.7857 27.7369 18.4714 28.1004C18.0799 28.5756 17.8641 29.164 17.7017 29.4727C17.6147 29.638 17.5151 29.6927 17.3935 29.6666C17.1223 29.6088 16.7642 29.1889 16.3733 28.6899C15.8024 27.96 15.5477 27.399 15.2503 27.3644C14.6187 27.2909 14.8995 28.7847 15.4923 30.016C16.0705 31.2212 16.9673 32.4076 18.4696 33.3568C20.1834 34.4417 22.7163 34.8355 24.272 34.6167C24.7633 34.5474 24.8606 34.0552 24.3706 33.9142Z" fill="white"/>
</svg>
