<svg width="290" height="186" viewBox="0 0 290 186" fill="none" xmlns="http://www.w3.org/2000/svg">
<path d="M51.5097 65.1416L47.0641 42.4042L57.4278 40.3778L68.8858 98.9802L58.5221 101.007L53.4255 74.9401L49.3428 75.7384L54.4394 101.805L43.7615 103.893L32.3035 45.2902L42.9814 43.2024L47.427 65.9399L51.5097 65.1416ZM1.22837 53.4528L12.6599 51.2177L21.1582 94.6827L37.9287 91.4037L39.8813 101.391L11.6794 106.905L1.22837 53.4528ZM119.863 52.1031L120.625 55.9973L143.425 51.5394L145.194 60.5841L87.4078 71.8825L85.6394 62.8378L108.44 58.3798L107.678 54.4856L87.1391 58.5014L82.6812 35.7011L135.945 25.287L140.403 48.0872L119.863 52.1031ZM125.731 36.0875L96.2103 41.8595L97.3524 47.7009L126.873 41.9289L125.731 36.0875ZM133.519 75.5831L92.2522 83.6516L90.5697 75.0466L143.77 64.6447L147.479 83.6135L135.545 85.9469L133.519 75.5831ZM182.883 40.89L183.681 44.9727L206.481 40.5148L208.311 49.8736L150.525 61.1719L148.696 51.8131L171.496 47.3552L170.698 43.2725L150.284 47.2638L145.703 23.8354L197.962 13.6178L199.669 22.3484L159.219 30.2573L160.386 36.2243L201.213 28.2418L202.92 36.9725L182.883 40.89ZM153.704 63.4198L165.952 61.0251L167.77 70.321L208.722 62.3139L210.478 71.2959L157.278 81.6977L153.704 63.4198ZM209.664 21.4376L209.615 21.1864C208.35 14.7169 212.071 10.4026 219.86 8.8798L249.946 2.99728C257.735 1.47446 262.87 4.05711 264.134 10.5266L264.184 10.7779C265.436 17.1845 261.664 21.5739 253.876 23.0967L223.79 28.9792C216.001 30.502 210.917 27.8443 209.664 21.4376ZM252.049 13.0852L252.037 13.0224C251.791 11.7662 250.865 11.0342 249.169 11.3658L223.794 16.3273C222.035 16.6711 221.516 17.6856 221.762 18.9418L221.774 19.0046C222.02 20.2608 222.87 20.9423 224.629 20.5984L250.005 15.6369C251.7 15.3054 252.294 14.3415 252.049 13.0852ZM210.462 34.1934L268.248 22.8951L269.833 30.9976L212.047 42.296L210.462 34.1934ZM274.168 58.8431L219.272 69.5766L216.226 53.9995L257.179 45.9924L256.675 43.4172L215.723 51.4243L214.409 44.7035L268.3 34.1666L271.333 49.6808L230.381 57.6879L230.884 60.2632L272.842 52.0596L274.168 58.8431ZM100.434 170.251L88.9763 111.648L100.91 109.315L112.368 167.918L100.434 170.251ZM74.4538 143.768C84.6396 145.168 91.6964 153.243 93.9052 167.876L82.8505 170.037C82.0965 161.511 78.0023 156.247 73.6673 154.421C71.3682 163.674 64.8554 172.056 54.7562 176.769L52.5948 165.714C61.2304 159.852 64.3882 152.322 61.7847 139.007L60.004 129.899L46.8137 132.478L44.8365 122.366L82.6485 114.972L84.6258 125.085L71.4355 127.664L74.0145 140.854C74.211 141.859 74.3324 142.814 74.4538 143.768ZM154.268 112.055L151.787 99.3677L163.721 97.0343L175.179 155.637L163.245 157.97L160.175 142.267L143.656 145.497C139.237 154.252 130.787 160.73 119.062 164.131L117.122 154.207C127.14 150.748 133.066 144.698 134.921 136.51L114.633 140.477L112.68 130.49L135.104 126.106C135.056 125.528 134.933 124.9 134.823 124.335L133.128 115.667L111.207 119.953L109.217 109.778L142.758 103.22L144.846 113.898L154.268 112.055ZM146.89 134.692L158.259 132.469L156.184 121.854L146.699 123.708C147.26 127.577 147.319 131.217 146.89 134.692ZM223.096 130.552L214.598 87.0869L226.532 84.7535L237.99 143.356L226.056 145.689L224.889 139.722L208.935 142.842L207.142 133.671L223.096 130.552ZM195.169 113.123C191.869 118.594 185.261 122.82 176.892 125.043L175.075 115.747C183.194 113.247 187.165 109.21 186.097 103.745L186.072 103.62L174.201 105.941L172.383 96.6449L208.06 89.6694L209.877 98.9654L197.252 101.434L197.265 101.497C197.486 102.627 197.569 103.72 197.577 104.761C206.556 103.658 213.216 107.703 215.036 116.346L204.17 118.471C202.981 114.726 199.325 112.701 195.169 113.123ZM217.402 117.775L219.294 127.448C216.063 128.601 212.72 129.516 206.251 130.78L202.482 131.517C203.379 141.776 196.032 151.559 185.327 154.174L183.546 145.067C188.439 142.741 190.965 138.986 190.611 133.838L177.923 136.319L176.032 126.646L204.36 121.108C210.829 119.843 214.172 118.928 217.402 117.775ZM254.887 122.38L242.701 124.762L234.989 85.3171L247.174 82.9346L254.887 122.38ZM257.969 138.145L245.784 140.528L243.426 128.468L255.611 126.086L257.969 138.145Z" fill="black"/>
</svg>
