<svg width="48" height="48" viewBox="0 0 48 48" fill="none" xmlns="http://www.w3.org/2000/svg">
<rect x="2" y="2" width="44" height="44" rx="22" fill="#6E6053"/>
<path d="M36.5507 24.2503L36.3277 24.0962C35.8915 23.6673 35.3736 23.3472 34.8105 23.1584C34.2474 22.9697 33.6528 22.917 33.0688 23.004C32.0521 23.0948 31.0725 23.4587 30.2188 24.0627V24.0091C30.2268 23.5878 30.2558 23.1673 30.3056 22.7494C30.3427 22.3139 30.3861 21.8783 30.3861 21.4629C30.3993 21.0652 30.3381 20.6686 30.2064 20.297C30.1907 20.253 30.1623 20.2157 30.1256 20.1904C30.0888 20.165 30.0455 20.1531 30.002 20.1563C29.5371 20.2036 29.088 20.3639 28.6885 20.6253L28.5894 20.8532C28.5877 21.4908 28.5233 22.1265 28.3973 22.7494C28.3836 22.804 28.367 22.8577 28.3477 22.9102C28.193 24.514 28.193 26.1308 28.3477 27.7346C28.3477 27.8686 28.6142 28.0764 28.8 28.1568C29.2257 28.168 29.6486 28.0789 30.0391 27.8954H30.1816C30.2101 27.8914 30.2374 27.8812 30.262 27.8653C30.2867 27.8495 30.308 27.8284 30.3248 27.8033C30.3417 27.7782 30.3536 27.7496 30.3598 27.7194C30.3661 27.6892 30.3666 27.6579 30.3613 27.6274V27.2321C30.5309 26.5443 30.8681 25.9184 31.3379 25.4198C31.8076 24.9212 32.3926 24.5682 33.0316 24.3977C33.351 24.323 33.683 24.3406 33.9941 24.4488C34.3052 24.557 34.5844 24.752 34.8036 25.0142C34.9454 25.6803 34.8409 26.3801 34.5124 26.9641C34.0496 27.7835 33.331 28.3967 32.4864 28.6928C31.494 29.0752 30.44 29.2348 29.3886 29.1618C29.3328 29.1283 28.2424 28.331 28.2424 28.331C27.2345 27.4984 26.1409 26.7946 24.9835 26.2337C24.7175 26.0732 24.4683 25.8823 24.24 25.6642L24.1347 25.5636C23.5152 25.0142 22.307 24.1565 21.3467 23.4664L20.8325 23.0844V22.9705C20.8325 22.937 21.452 22.5484 21.452 22.5484C21.9232 22.2967 22.3642 21.984 22.7655 21.617L22.8832 21.5433L24.9773 20.2568C26.9847 19.0641 29.2647 17.7106 30.4605 16.3705L30.5162 16.1628V15.9818C30.5872 15.7353 30.5872 15.4712 30.5162 15.2247C30.5084 15.1816 30.4889 15.1421 30.4602 15.1111C30.4315 15.08 30.3949 15.0589 30.3551 15.0505C29.4196 14.95 28.2176 15.553 27.121 16.6653C26.9182 16.8672 26.691 17.0385 26.4457 17.1745L26.2784 17.2684C25.0393 18.0121 22.3442 19.8414 20.9192 20.8331C21.0539 18.8228 21.2959 16.8227 21.6441 14.8428L21.6069 14.6082L21.4582 14.3134L21.3467 14.099C21.1322 13.9858 20.885 13.969 20.659 14.0521L20.374 14.166L19.996 14.3134C19.96 14.3217 19.9265 14.3395 19.8984 14.3652C19.8703 14.3909 19.8485 14.4238 19.835 14.4608C19.0632 16.7263 18.5978 19.1005 18.4533 21.5098C17.4088 20.801 16.3291 20.1545 15.2192 19.5733H15.1449C14.8735 19.5002 14.6172 19.3729 14.389 19.1981L13.8748 18.8363L13.0817 18.2868L12.8711 18.2332C12.4091 18.3912 11.9985 18.6888 11.6877 19.0909C11.6641 19.1334 11.6512 19.182 11.6505 19.2316C11.6563 19.2998 11.6688 19.3672 11.6877 19.4326L11.7249 19.6068L11.7621 19.7141C12.4647 20.3514 13.2366 20.8936 14.0606 21.3289L15.1449 21.952L16.8115 22.9303L17.0965 23.1782L17.2886 23.2989H17.3257C16.8796 23.6138 14.3023 25.4832 14.3023 25.4832L12.679 26.6893C12.3815 26.8657 12.0754 27.0245 11.7621 27.1651C11.4607 27.2792 11.2062 27.5046 11.0434 27.8016L11 27.9021L11.0434 27.9691L11.1673 28.0696L11.3284 28.1836L11.508 28.3109L11.6691 28.3444C12.1849 28.2687 12.6829 28.0892 13.1375 27.815C13.85 27.4733 15.783 26.2136 16.6132 25.6775L16.9664 25.443C17.1344 25.4185 17.2908 25.3363 17.4125 25.2085C17.6462 25.0217 17.895 24.8579 18.1559 24.7194C18.1559 24.7194 18.2922 24.639 18.41 24.572V24.6792C18.3955 26.7757 18.5489 28.8696 18.8684 30.9375V31.0045C19.0598 31.4638 19.2032 31.9447 19.2959 32.4384L19.6057 33.5775L19.6987 33.6847C20.0277 33.8979 20.4055 34.007 20.7891 33.9996H20.882L20.9378 33.8589C20.9684 33.6867 20.9829 33.5116 20.9811 33.3363C20.9811 33.1286 20.9811 32.9008 20.9811 32.6193V32.2106C20.8634 30.3009 20.7519 27.5202 20.7519 25.7111V25.5636L22.3628 26.6625C24.5932 28.2238 27.9388 30.5958 30.002 31.2189C30.0532 31.2354 30.1075 31.2373 30.1596 31.2244C30.2118 31.2115 30.2599 31.1842 30.2994 31.1452L30.6153 30.9308H30.6711C30.7408 30.8698 30.7961 30.7919 30.8327 30.7034C30.8693 30.6149 30.8861 30.5184 30.8818 30.4216C32.5979 30.3344 34.9956 29.6175 36.2781 27.8753C36.7363 27.2439 36.9889 26.4667 36.9968 25.6642C37.0242 25.175 36.8729 24.6938 36.5755 24.324" fill="#FCAF17"/>
</svg>
