<svg width="48" height="48" viewBox="0 0 48 48" fill="none" xmlns="http://www.w3.org/2000/svg">
<rect x="2" y="2" width="44" height="44" rx="22" fill="#F1FBFF"/>
<path d="M28.5365 36.618L17.5529 29.5238C17.5529 29.5238 16.1751 28.7382 15.8601 27.2749C15.417 25.2192 16.8775 23.4576 16.8775 23.4576L31.1326 32.6678C32.2319 33.3787 32.5322 34.8331 31.8254 35.9303C31.0992 37.0576 29.6071 37.3059 28.5365 36.618Z" fill="#38D200"/>
<path d="M18.1331 21.9375C18.1331 21.9375 16.4507 20.9296 16.4507 18.5986C16.4507 16.2754 18.1325 15.2801 18.1325 15.2801L24.1372 11.3814C25.2379 10.6714 26.7098 10.9813 27.4251 12.073C28.1407 13.1647 27.8285 14.6253 26.7277 15.335L21.6669 18.6041L30.2899 24.1757C30.2899 24.1757 31.8421 25.0581 32.1478 26.5471C32.5747 28.6247 31.1333 30.3367 31.1333 30.3367L18.1331 21.9375Z" fill="#0473EA"/>
<path d="M29.4351 16.1615C28.8714 16.1615 28.4698 16.3379 28.0784 16.5907L25.1475 18.4847L28.0785 20.3786C28.4738 20.6314 28.8886 20.808 29.4352 20.808C30.7285 20.808 31.777 19.7676 31.777 18.4847C31.777 17.2018 30.7284 16.1612 29.4351 16.1615Z" fill="#38D200"/>
<path d="M18.1015 36.9938C18.6652 36.9938 19.0668 36.8175 19.4582 36.5646L22.3896 34.6707L19.4582 32.7768C19.0628 32.5242 18.6482 32.3473 18.1015 32.3473C16.8082 32.3473 15.7598 33.3876 15.7598 34.6707C15.7598 35.9534 16.8082 36.9941 18.1015 36.9938Z" fill="#0473EA"/>
</svg>
