<svg width="48" height="48" viewBox="0 0 48 48" fill="none" xmlns="http://www.w3.org/2000/svg">
<rect x="2" y="2" width="44" height="44" rx="22" fill="#0CA743"/>
<g clip-path="url(#clip0_530_698)">
<g clip-path="url(#clip1_530_698)">
<path d="M29.1969 10.8263L24.0003 13.4397L18.8037 10.8263L24.0003 20.7028L29.1969 10.8263Z" fill="#FFB71B"/>
<path d="M31.0509 18.426L34.7584 16.8761V11.6492L28.3159 14.4146L24.7299 21.1611C26.1094 21.3201 27.3759 22.0007 28.2698 23.0635C29.1637 24.1262 29.6173 25.4906 29.5376 26.877C29.458 28.2634 28.8511 29.5668 27.8414 30.5202C26.8317 31.4736 25.4956 32.0047 24.1069 32.0047C22.7182 32.0047 21.3821 31.4736 20.3724 30.5202C19.3627 29.5668 18.7558 28.2634 18.6762 26.877C18.5965 25.4906 19.0501 24.1262 19.944 23.0635C20.8378 22.0007 22.1043 21.3201 23.4839 21.1611L19.898 14.4146L13.4858 11.6492V16.8761L17.2541 18.426C15.6198 19.8546 14.4603 21.7477 13.9303 23.8527C13.4003 25.9576 13.525 28.1741 14.288 30.2063C15.0509 32.2384 16.4157 33.9895 18.2 35.2255C19.9844 36.4615 22.1034 37.1238 24.274 37.1238C26.4447 37.1238 28.5637 36.4615 30.348 35.2255C32.1324 33.9895 33.4971 32.2384 34.2601 30.2063C35.0231 28.1741 35.1479 25.9576 34.6179 23.8527C34.0879 21.7477 32.9283 19.8546 31.294 18.426H31.0509Z" fill="#FFB71B"/>
</g>
</g>
<g clip-path="url(#clip2_530_698)">
<g clip-path="url(#clip3_530_698)">
<path d="M18.8031 10.8263L23.9997 13.4397L29.1963 10.8263L23.9997 20.7028L18.8031 10.8263Z" fill="#FFB71B"/>
<path d="M16.9491 18.426L13.2416 16.8761V11.6492L19.6841 14.4146L23.2701 21.1611C21.8906 21.3201 20.6241 22.0007 19.7302 23.0635C18.8363 24.1262 18.3827 25.4906 18.4624 26.877C18.542 28.2634 19.1489 29.5668 20.1586 30.5202C21.1683 31.4736 22.5044 32.0047 23.8931 32.0047C25.2818 32.0047 26.6179 31.4736 27.6276 30.5202C28.6373 29.5668 29.2442 28.2634 29.3238 26.877C29.4035 25.4906 28.9499 24.1262 28.056 23.0635C27.1622 22.0007 25.8957 21.3201 24.5161 21.1611L28.102 14.4146L34.5142 11.6492V16.8761L30.7459 18.426C32.3802 19.8546 33.5397 21.7477 34.0697 23.8527C34.5997 25.9576 34.475 28.1741 33.712 30.2063C32.9491 32.2384 31.5843 33.9895 29.8 35.2255C28.0156 36.4615 25.8966 37.1238 23.726 37.1238C21.5553 37.1238 19.4363 36.4615 17.652 35.2255C15.8676 33.9895 14.5029 32.2384 13.7399 30.2063C12.9769 28.1741 12.8521 25.9576 13.3821 23.8527C13.9121 21.7477 15.0717 19.8546 16.706 18.426H16.9491Z" fill="#FFB71B"/>
</g>
</g>
<defs>
<clipPath id="clip0_530_698">
<rect width="11" height="29" fill="white" transform="translate(13 9)"/>
</clipPath>
<clipPath id="clip1_530_698">
<rect width="21.3333" height="26.3476" fill="white" transform="translate(13.3335 10.8263)"/>
</clipPath>
<clipPath id="clip2_530_698">
<rect width="11" height="29" fill="white" transform="matrix(-1 0 0 1 35 9)"/>
</clipPath>
<clipPath id="clip3_530_698">
<rect width="21.3333" height="26.3476" fill="white" transform="matrix(-1 0 0 1 34.6665 10.8263)"/>
</clipPath>
</defs>
</svg>
