<svg width="48" height="48" viewBox="0 0 48 48" fill="none" xmlns="http://www.w3.org/2000/svg">
<rect x="2" y="2" width="44" height="44" rx="22" fill="#140064"/>
<g clip-path="url(#clip0_610_5899)">
<path d="M14.5129 20H12.5827L9.5351 23.5835V20H8V27.8174H9.5351V24.2225L12.6843 27.8174H14.6145L11.1831 23.903L14.5129 20Z" fill="white"/>
<path d="M40 27.8174L37.6861 25.1127L39.9323 22.408H38.273L36.309 24.7475V20H34.7739V27.8174H36.309V25.4665L38.3069 27.8174H40Z" fill="white"/>
<path d="M18.294 22.214C17.6506 22.214 17.0975 22.4993 16.646 22.8873V20H15.0996V25.1469C15.0996 26.699 16.1155 27.9886 18.0231 27.9886C19.7388 27.9886 20.9465 26.7903 20.9465 25.1127C20.9465 23.5264 19.9081 22.214 18.294 22.214ZM18.0231 26.5849C17.2329 26.5849 16.5783 25.9458 16.567 25.1469C16.567 25.1355 16.567 25.1241 16.567 25.1013C16.567 24.9301 16.6008 24.7703 16.646 24.622C16.8492 24.0399 17.391 23.6291 18.0344 23.6291C18.8471 23.6291 19.5017 24.291 19.5017 25.1127C19.4904 25.923 18.8358 26.5849 18.0231 26.5849Z" fill="white"/>
<path d="M31.8165 22.214C31.0715 22.214 30.4959 22.4879 30.0444 22.8987V22.3852H28.5093V26.3909V27.8174H30.0105H30.0444V24.7703C30.0444 24.1427 30.5523 23.6291 31.1731 23.6291C31.7939 23.6291 32.3019 24.1427 32.3019 24.7703V27.7718V27.806H33.8483V24.3367C33.8483 24.3138 33.8483 24.291 33.8483 24.2682C33.8595 23.1384 32.9227 22.214 31.8165 22.214Z" fill="white"/>
<path d="M24.6263 22.2254C22.888 22.2254 21.6689 23.4237 21.6689 25.1013C21.6689 26.6876 22.7187 28 24.3441 28C25.0778 28 25.7776 27.6006 26.1839 27.0642V27.8174H27.5723V25.1013H27.561C27.5723 25.0785 27.5723 25.0671 27.5723 25.0671C27.5836 23.515 26.5564 22.2254 24.6263 22.2254ZM24.6601 26.5735C23.8474 26.5735 23.1928 25.9116 23.1928 25.0899C23.1928 24.2682 23.8474 23.6063 24.6601 23.6063C25.4728 23.6063 26.1275 24.2682 26.1275 25.0899C26.1275 25.9116 25.4728 26.5735 24.6601 26.5735Z" fill="white"/>
</g>
<defs>
<clipPath id="clip0_610_5899">
<rect width="32" height="8" fill="white" transform="translate(8 20)"/>
</clipPath>
</defs>
</svg>
