<svg width="337" height="54" viewBox="0 0 337 54" fill="none" xmlns="http://www.w3.org/2000/svg">
<rect width="337" height="54" rx="6" fill="#FEE500"/>
<path d="M85.84 18.76C85.82 24.9 82.76 28.84 77.84 31.32L76.74 29.96C79.5 28.7 81.7 26.82 82.94 24.36L77.34 24.96L77.02 23.4L83.52 22.9C83.78 22.08 83.94 21.2 83.98 20.26H77.72V18.76H85.84ZM90.26 16.92V23.96H93.04V25.42H90.26V34.4H88.5V16.92H90.26ZM103.145 18.76C103.125 24.9 100.065 28.84 95.1447 31.32L94.0447 29.96C96.8047 28.7 99.0047 26.82 100.245 24.36L94.6447 24.96L94.3247 23.4L100.825 22.9C101.085 22.08 101.245 21.2 101.285 20.26H95.0247V18.76H103.145ZM107.565 16.92V23.96H110.345V25.42H107.565V34.4H105.805V16.92H107.565ZM125.769 22.86C125.769 25.58 123.549 27.46 120.129 27.72V30.68H127.149V32.14H111.369V30.68H118.349V27.7C114.949 27.42 112.749 25.58 112.749 22.86C112.749 19.94 115.349 18 119.249 18C123.189 18 125.769 19.94 125.769 22.86ZM123.949 22.86C123.949 20.88 122.089 19.48 119.249 19.48C116.429 19.48 114.569 20.88 114.569 22.86C114.569 24.86 116.429 26.24 119.249 26.24C122.069 26.24 123.949 24.86 123.949 22.86ZM149.708 32.18H133.928V30.74H140.888V27.98H135.828V22.36H145.988V19.8H135.788V18.36H147.748V23.8H137.588V26.54H148.228V27.98H142.668V30.74H149.708V32.18ZM167.013 31.86H151.233V30.42H167.013V31.86ZM164.913 18.9C164.913 22.88 164.613 26.9 164.093 29.16L162.373 28.94C162.813 27.26 163.113 22.96 163.113 20.32H152.873V18.9H164.913ZM182.877 29.62H181.097V16.92H182.877V29.62ZM183.277 33.86H171.377V28.42H173.157V32.44H183.277V33.86ZM173.597 18.1C176.297 18.1 178.277 19.96 178.277 22.46C178.277 24.98 176.297 26.72 173.597 26.72C170.917 26.72 168.937 24.98 168.937 22.48C168.937 19.96 170.917 18.1 173.597 18.1ZM173.597 19.62C171.957 19.62 170.797 20.82 170.797 22.44C170.797 24.04 171.957 25.24 173.597 25.24C175.317 25.24 176.397 24.06 176.397 22.46C176.397 20.8 175.317 19.62 173.597 19.62Z" fill="black"/>
<path opacity="0.902" fill-rule="evenodd" clip-rule="evenodd" d="M34 16.2587C27.72 16.2587 22 21.3067 22 25.5773C22 28.7773 24.0773 31.6 27.2413 33.2773L25.9107 38.1653C25.792 38.5987 26.284 38.9427 26.6613 38.6933L32.4973 34.82C32.9893 34.868 33.4907 34.896 34 34.896C40.6267 34.896 46 30.724 46 25.5773C46 21.3067 40.6267 16.2587 34 16.2587Z" fill="black"/>
</svg>
